<?xml version="1.0" standalone="no"?>
<!DOCTYPE svg PUBLIC "-//W3C//DTD SVG 1.1//EN" "http://www.w3.org/Graphics/SVG/1.1/DTD/svg11.dtd">
<!--Generator: Xara Designer (www.xara.com), SVG filter version: 6.1.0.16-->
<svg stroke-width="0.501" stroke-linejoin="bevel" fill-rule="evenodd" xmlns:xlink="http://www.w3.org/1999/xlink" xmlns="http://www.w3.org/2000/svg" version="1.1" overflow="visible" width="720pt" height="720pt" viewBox="0 0 720 720">
 <defs>
	</defs>
 <g id="Document" fill="none" stroke="black" font-family="Times New Roman" font-size="16" transform="scale(1 -1)">
  <g id="Spread" transform="translate(0 -720)">
   <g id="Layer 1">
    <path d="M 227.057,600.408 L 231.005,601.068 L 237.257,579.316 L 244.167,564.815 L 253.712,552.29 L 266.216,537.131 L 277.731,513.073 L 282.01,488.356 L 280.035,462.978 L 273.125,436.282 L 270.492,435.951 L 275.101,459.682 L 277.073,481.763 L 274.112,502.856 L 263.912,523.948 L 257.66,530.538 L 250.747,535.814 L 243.838,539.109 L 236.928,540.426 L 249.103,412.882 L 247.457,397.392 L 240.876,384.869 L 231.334,376.63 L 220.802,371.357 L 214.222,371.686 L 208.627,374.652 L 204.679,379.927 L 203.033,388.164 L 204.021,402.336 L 210.273,415.191 L 219.487,424.088 L 229.69,429.692 L 237.586,429.361 L 243.838,426.394 L 232.649,541.415 L 227.057,600.408 Z" stroke="none" fill="#000080" stroke-width="0.329" marker-start="none" marker-end="none" stroke-miterlimit="79.8403193612775"/>
    <path d="M 227.386,600.408 L 227.057,600.079 L 231.005,600.737 L 230.676,601.068 L 236.928,579.316 L 243.838,564.815 L 253.38,552.29 L 265.884,537.131 L 277.402,513.073 L 281.681,488.356 L 279.706,462.978 L 279.706,463.306 L 272.797,436.611 L 273.125,436.611 L 270.492,436.282 L 270.821,435.951 L 275.427,459.682 L 277.402,481.763 L 277.402,482.091 L 274.441,503.185 L 264.24,524.277 L 263.912,524.277 L 257.66,530.87 L 250.747,536.142 L 243.838,539.438 L 236.928,540.755 L 236.599,540.755 L 236.599,540.426 L 248.775,412.882 L 247.128,397.392 L 247.128,397.721 L 240.547,385.198 L 231.005,376.961 L 220.474,371.686 L 220.802,371.686 L 214.222,372.017 L 208.627,374.983 L 204.679,380.254 L 205.008,380.254 L 203.364,388.495 L 203.364,388.164 L 204.35,402.336 L 210.602,415.191 L 210.273,415.191 L 219.487,424.088 L 219.487,423.759 L 229.69,429.361 L 237.586,429.032 L 237.257,429.032 L 243.509,426.065 L 243.838,426.065 L 243.838,426.394 L 244.167,426.394 L 232.98,541.415 L 227.386,600.408 L 226.726,600.408 L 232.323,541.415 L 243.509,426.394 L 243.838,426.725 L 237.586,429.692 L 229.69,430.021 L 229.358,430.021 L 219.158,424.416 L 209.945,415.52 L 203.69,402.665 L 203.69,402.336 L 202.704,388.164 L 204.35,379.927 L 208.298,374.652 L 208.298,374.323 L 213.893,371.357 L 214.222,371.357 L 220.802,371.028 L 231.334,376.301 L 231.334,376.63 L 240.876,384.869 L 241.205,384.869 L 247.788,397.392 L 249.432,412.882 L 237.257,540.426 L 236.599,540.098 L 243.509,538.78 L 250.419,535.482 L 250.419,535.814 L 257.328,530.538 L 263.583,523.948 L 273.783,502.856 L 276.745,481.763 L 274.769,459.682 L 274.769,460.011 L 270.164,436.282 L 270.164,435.625 L 270.492,435.625 L 273.125,435.951 L 273.125,436.282 L 273.454,436.282 L 280.364,462.978 L 282.339,488.356 L 282.339,488.684 L 278.06,513.402 L 266.544,537.462 L 266.216,537.462 L 253.712,552.621 L 244.167,565.144 L 244.495,565.144 L 237.586,579.645 L 231.334,601.397 L 230.676,601.397 L 226.726,600.737 L 226.726,600.408 L 227.386,600.408 Z" stroke="none" fill="#000000" stroke-width="0.329" fill-rule="nonzero" marker-start="none" marker-end="none" stroke-miterlimit="79.8403193612775"/>
    <path d="M 596.269,482.751 L 600.217,483.08 L 604.823,461 L 611.078,446.168 L 619.634,432.987 L 631.149,417.166 L 641.351,392.119 L 643.982,367.733 L 640.365,342.684 L 631.809,316.648 L 629.176,316.319 L 635.428,339.717 L 638.719,361.469 L 637.072,382.234 L 628.19,403.985 L 622.266,411.236 L 616.012,417.166 L 609.102,420.792 L 602.19,422.441 L 605.812,294.897 L 603.179,279.407 L 596.269,267.541 L 586.067,259.962 L 575.209,255.678 L 568.628,256.007 L 563.363,259.302 L 559.743,264.575 L 558.755,276.769 L 561.059,288.635 L 568.297,301.487 L 577.184,309.398 L 587.056,313.353 L 595.281,312.693 L 601.864,308.738 L 598.242,423.759 L 596.269,482.751 Z" stroke="none" fill="#010180" stroke-width="0.329" marker-start="none" marker-end="none" stroke-miterlimit="79.8403193612775"/>
    <path d="M 596.598,482.751 L 596.269,482.423 L 600.217,482.751 L 599.889,483.08 L 604.497,461 L 610.746,446.168 L 619.302,432.987 L 630.823,417.166 L 641.023,392.119 L 643.655,367.733 L 643.655,368.061 L 640.034,343.015 L 631.48,316.977 L 631.809,316.977 L 629.176,316.648 L 629.505,316.319 L 635.757,339.717 L 639.047,361.469 L 637.401,382.234 L 637.401,382.562 L 628.516,404.314 L 628.19,404.314 L 622.266,411.564 L 616.012,417.497 L 609.102,421.124 L 602.19,422.77 L 601.864,422.77 L 601.864,422.441 L 605.483,294.897 L 605.483,295.226 L 602.85,279.736 L 595.941,267.872 L 585.738,260.291 L 574.878,256.007 L 575.209,256.007 L 568.628,256.338 L 563.363,259.631 L 559.743,264.906 L 560.072,264.575 L 559.086,276.769 L 561.387,288.635 L 561.059,288.635 L 568.297,301.487 L 577.184,309.398 L 577.184,309.069 L 587.056,313.022 L 595.281,312.364 L 594.954,312.693 L 601.533,308.738 L 601.533,308.409 L 601.864,308.409 L 601.864,308.738 L 602.19,308.738 L 598.573,423.759 L 596.598,482.751 L 595.941,482.751 L 597.913,423.759 L 601.533,308.738 L 601.864,309.069 L 595.281,313.022 L 587.056,313.682 L 586.725,313.682 L 576.853,309.727 L 567.968,301.818 L 560.73,288.964 L 558.426,277.098 L 558.426,276.769 L 559.412,264.575 L 563.031,259.302 L 568.297,256.007 L 568.297,255.678 L 568.628,255.678 L 575.209,255.347 L 586.067,259.631 L 586.067,259.962 L 596.269,267.541 L 603.179,279.407 L 603.508,279.407 L 606.141,294.897 L 602.521,422.441 L 601.864,422.11 L 608.774,420.464 L 615.683,416.837 L 615.683,417.166 L 621.935,411.236 L 627.859,403.985 L 636.743,382.234 L 638.39,361.469 L 638.39,361.8 L 635.099,340.048 L 628.847,316.648 L 628.847,315.988 L 629.176,315.988 L 631.809,316.319 L 631.809,316.648 L 632.138,316.648 L 640.691,342.684 L 644.313,367.733 L 641.68,392.119 L 641.68,392.448 L 631.48,417.497 L 631.149,417.497 L 619.634,433.316 L 611.078,446.499 L 611.406,446.499 L 605.154,461.329 L 600.546,483.411 L 600.217,483.411 L 596.269,483.08 L 595.941,483.08 L 595.941,482.751 L 596.598,482.751 Z" stroke="none" fill="#000000" stroke-width="0.329" fill-rule="nonzero" marker-start="none" marker-end="none" stroke-miterlimit="79.8403193612775"/>
    <path d="M 301.426,562.838 L 305.046,562.838 L 308.665,360.811 L 307.018,345.981 L 301.095,333.127 L 290.895,324.556 L 277.731,320.603 L 271.481,321.921 L 266.216,324.887 L 262.925,331.149 L 261.279,339.388 L 264.24,354.218 L 271.15,368.061 L 281.024,375.97 L 291.224,378.936 L 298.794,378.278 L 304.386,374.323 L 301.426,562.838 Z" stroke="none" fill="#000080" stroke-width="0.329" marker-start="none" marker-end="none" stroke-miterlimit="79.8403193612775"/>
    <path d="M 301.753,562.838 L 301.426,562.507 L 305.046,562.507 L 304.717,562.838 L 308.336,360.811 L 306.69,345.981 L 306.69,346.308 L 300.766,333.456 L 290.566,324.887 L 277.402,320.932 L 277.731,320.932 L 271.481,322.25 L 266.216,325.216 L 266.544,325.216 L 263.254,331.48 L 261.608,339.717 L 261.608,339.388 L 264.569,354.218 L 271.481,368.061 L 271.15,368.061 L 281.024,375.97 L 281.024,375.641 L 291.224,378.607 L 298.794,377.947 L 298.462,378.278 L 304.057,374.323 L 304.057,373.994 L 304.386,373.994 L 304.386,374.323 L 304.717,374.323 L 301.753,562.838 L 301.095,562.838 L 304.057,374.323 L 304.386,374.652 L 298.794,378.607 L 291.224,379.267 L 290.895,379.267 L 280.693,376.301 L 270.821,368.39 L 263.912,354.549 L 260.95,339.717 L 260.95,339.388 L 262.594,331.149 L 265.884,324.887 L 271.15,321.921 L 271.15,321.592 L 277.402,320.272 L 277.731,320.272 L 290.895,324.227 L 290.895,324.556 L 301.095,333.127 L 301.426,333.127 L 307.35,345.981 L 308.994,360.811 L 305.374,562.838 L 305.374,563.167 L 301.095,563.167 L 301.095,562.838 L 301.753,562.838 Z" stroke="none" fill="#000000" stroke-width="0.329" fill-rule="nonzero" marker-start="none" marker-end="none" stroke-miterlimit="79.8403193612775"/>
    <path d="M 529.467,408.269 L 527.163,392.779 L 520.253,380.585 L 511.04,372.677 L 499.524,369.05 L 493.27,369.71 L 488.007,372.677 L 484.385,378.607 L 482.412,386.846 L 484.385,401.679 L 491.295,414.2 L 500.511,422.441 L 511.04,426.065 L 518.938,425.736 L 524.861,421.781 L 524.861,538.449 L 450.163,510.436 L 450.492,414.2 L 450.492,316.648 L 449.177,301.158 L 442.925,285.997 L 433.051,276.441 L 422.522,272.814 L 414.295,273.145 L 409.029,276.112 L 404.752,284.68 L 403.766,296.543 L 406.725,310.715 L 412.322,322.25 L 421.864,331.149 L 431.407,334.444 L 439.961,334.116 L 445.884,330.489 L 446.215,573.715 L 529.467,604.694 L 529.467,408.269 Z" stroke="none" fill="#010180" stroke-width="0.329" marker-start="none" marker-end="none" stroke-miterlimit="79.8403193612775"/>
    <path d="M 529.138,408.269 L 529.138,408.598 L 526.837,393.108 L 519.927,380.914 L 510.711,373.003 L 499.193,369.379 L 499.524,369.379 L 493.27,370.039 L 488.007,373.003 L 484.385,378.936 L 484.716,378.936 L 482.741,387.178 L 482.741,386.846 L 484.716,401.679 L 491.626,414.2 L 491.295,414.2 L 500.511,422.441 L 500.511,422.11 L 511.04,425.736 L 518.938,425.408 L 518.609,425.736 L 524.533,421.781 L 524.533,421.45 L 524.861,421.45 L 524.861,421.781 L 525.19,421.781 L 525.19,538.78 L 524.533,538.78 L 449.834,510.767 L 449.834,510.436 L 450.163,414.2 L 450.163,316.648 L 448.848,301.158 L 448.848,301.487 L 442.593,286.326 L 432.722,276.769 L 422.191,273.145 L 422.522,273.145 L 414.295,273.474 L 409.029,276.441 L 409.358,276.441 L 405.081,285.009 L 405.081,284.68 L 404.092,296.543 L 407.056,310.715 L 412.648,322.25 L 412.322,322.25 L 421.864,331.149 L 421.864,330.82 L 431.407,334.116 L 439.961,333.787 L 439.634,334.116 L 445.557,330.489 L 445.557,330.16 L 445.884,330.16 L 445.884,330.489 L 446.215,330.489 L 446.544,573.715 L 446.215,573.384 L 529.467,604.363 L 529.138,604.694 L 529.138,408.269 L 529.796,408.269 L 529.796,604.694 L 529.796,605.023 L 529.138,605.023 L 445.884,574.044 L 445.884,573.715 L 445.557,330.489 L 445.884,330.82 L 439.961,334.444 L 431.407,334.773 L 431.078,334.773 L 421.533,331.48 L 411.991,322.581 L 406.399,311.044 L 403.435,296.874 L 403.435,296.543 L 404.423,284.68 L 408.7,276.112 L 413.966,273.145 L 413.966,272.814 L 414.295,272.814 L 422.522,272.485 L 433.051,276.112 L 433.051,276.441 L 442.925,285.997 L 443.253,285.997 L 449.506,301.158 L 450.821,316.648 L 450.821,414.2 L 450.492,510.436 L 450.163,510.107 L 524.861,538.12 L 524.533,538.449 L 524.533,421.781 L 524.861,422.11 L 518.938,426.065 L 511.04,426.394 L 510.711,426.394 L 500.182,422.77 L 490.968,414.531 L 484.059,402.005 L 482.083,387.178 L 482.083,386.846 L 484.059,378.607 L 487.675,372.677 L 492.941,369.71 L 492.941,369.379 L 493.27,369.379 L 499.524,368.719 L 511.04,372.346 L 511.04,372.677 L 520.253,380.585 L 527.163,392.779 L 527.494,392.779 L 529.796,408.269 L 529.138,408.269 Z" stroke="none" fill="#000000" stroke-width="0.329" fill-rule="nonzero" marker-start="none" marker-end="none" stroke-miterlimit="79.8403193612775"/>
    <path d="M 385.007,496.924 L 385.007,597.773 L 383.032,605.681 L 379.413,610.954 L 373.161,616.558 L 366.58,620.182 L 359.67,622.819 L 344.204,625.455 L 328.407,625.455 L 302.413,621.173 L 275.758,613.92 L 250.419,605.352 L 226.068,595.795 L 202.704,584.589 L 180.328,573.055 L 159.268,560.86 L 147.093,553.61 L 148.408,536.142 L 165.849,546.688 L 185.594,557.565 L 205.997,568.44 L 228.372,579.645 L 252.394,589.533 L 276.416,598.101 L 300.438,604.363 L 323.142,608.318 L 343.876,608.647 L 353.087,607.658 L 361.314,605.352 L 366.909,601.068 L 369.541,595.135 L 369.87,586.896 L 368.555,579.645 L 363.618,565.804 L 356.709,553.61 L 344.533,554.927 L 332.029,555.256 L 319.851,554.27 L 307.35,551.963 L 295.83,549.326 L 281.024,545.37 L 255.684,537.462 L 231.662,527.903 L 208.298,517.686 L 185.923,506.481 L 164.534,494.946 L 143.802,482.423 L 135.575,477.147 L 127.677,456.387 L 149.397,469.571 L 171.115,482.423 L 194.808,495.606 L 217.183,506.152 L 239.559,515.709 L 262.265,524.277 L 274.112,528.232 L 285.958,531.527 L 297.805,534.825 L 309.98,537.462 L 320.183,538.78 L 329.725,539.769 L 348.81,539.769 L 340.912,520.653 L 340.912,484.398 L 329.396,483.74 L 317.879,482.423 L 306.361,480.445 L 294.843,478.139 L 282.997,474.512 L 270.821,470.557 L 247.457,461.989 L 225.41,453.09 L 204.021,442.875 L 183.619,432.658 L 163.876,421.124 L 144.789,409.587 L 125.704,397.063 L 135.246,397.721 L 144.131,397.392 L 148.079,395.746 L 165.191,405.963 L 183.29,416.18 L 201.717,426.065 L 221.134,435.625 L 241.205,444.193 L 262.265,452.432 L 284.314,459.682 L 295.172,462.646 L 306.361,465.284 L 315.246,466.933 L 324.131,468.251 L 332.687,468.579 L 340.912,468.579 L 340.912,414.2 L 333.344,413.542 L 325.446,412.882 L 317.879,412.224 L 309.98,410.907 L 294.843,407.28 L 280.035,402.996 L 265.227,398.052 L 250.419,392.779 L 235.939,387.178 L 221.791,381.245 L 208.298,375.312 L 195.137,368.719 L 182.961,361.469 L 176.709,358.173 L 178.682,343.672 L 192.832,351.252 L 211.92,360.482 L 232.323,370.039 L 253.052,378.278 L 274.441,385.529 L 296.49,391.791 L 318.536,396.075 L 340.912,398.712 L 340.912,343.344 L 332.029,343.015 L 323.142,342.355 L 314.586,341.037 L 306.361,339.717 L 296.818,337.082 L 284.643,333.787 L 262.925,327.194 L 242.191,319.286 L 222.12,310.715 L 200.071,299.841 L 178.682,288.964 L 153.345,273.803 L 145.446,266.552 L 147.422,254.689 L 186.909,277.098 L 210.273,289.293 L 234.624,300.827 L 260.292,311.044 L 286.287,319.286 L 299.78,322.581 L 313.271,325.876 L 329.065,327.854 L 341.572,328.183 L 340.912,246.45 L 342.558,236.562 L 346.506,227.334 L 352.429,219.094 L 360.328,211.844 L 367.566,207.891 L 375.465,204.925 L 383.692,202.616 L 392.246,200.969 L 406.725,200.969 L 421.204,201.298 L 436.013,202.616 L 450.821,205.913 L 473.527,211.515 L 489.98,216.128 L 516.634,225.027 L 542.96,234.915 L 593.308,256.007 L 641.351,279.076 L 670.637,295.554 L 670.637,311.044 L 630.823,290.284 L 576.196,264.906 L 545.922,252.052 L 518.609,241.835 L 496.892,234.255 L 471.552,226.676 L 454.769,222.392 L 437.659,219.094 L 417.585,216.788 L 398.169,216.128 L 387.311,217.777 L 377.111,220.083 L 367.566,224.367 L 359.341,230.96 L 354.405,238.211 L 352.429,247.107 L 352.101,280.396 L 365.922,272.814 L 381.717,268.861 L 398.169,267.212 L 414.952,267.541 L 434.369,270.839 L 449.506,273.803 L 469.906,279.076 L 483.727,283.031 L 501.168,288.635 L 520.913,295.554 L 549.541,306.76 L 614.039,336.093 L 670.637,364.766 L 670.637,380.914 L 619.634,355.538 L 566.324,330.82 L 538.683,318.955 L 510.382,308.409 L 481.095,298.521 L 451.15,289.953 L 434.037,286.326 L 413.308,283.691 L 392.577,283.031 L 382.046,284.68 L 370.857,287.646 L 360.657,292.259 L 352.101,298.852 L 352.101,351.583 L 359.999,348.945 L 368.555,346.308 L 382.046,344.001 L 394.552,343.672 L 407.385,344.001 L 420.218,344.99 L 441.278,348.288 L 462.996,352.572 L 485.045,358.502 L 510.711,366.413 L 536.708,375.312 L 571.919,388.824 L 606.141,403.654 L 670.637,435.293 L 670.637,452.103 L 620.949,427.383 L 569.286,404.314 L 542.302,393.768 L 514.99,384.211 L 483.399,374.652 L 458.39,368.39 L 439.961,363.777 L 425.484,361.469 L 410.676,360.151 L 395.867,359.822 L 381.388,359.822 L 373.821,361.14 L 365.922,363.117 L 358.684,365.095 L 352.101,369.05 L 352.101,419.475 L 359.999,415.191 L 368.226,412.224 L 377.111,410.576 L 386.322,410.247 L 396.854,410.247 L 405.41,410.576 L 424.166,412.882 L 437.001,415.52 L 450.492,417.826 L 472.21,423.43 L 497.218,431.338 L 522.557,439.909 L 544.606,447.817 L 561.719,454.738 L 599.56,471.217 L 670.637,505.492 L 670.637,522.301 L 615.354,495.275 L 564.349,472.863 L 536.05,461.66 L 507.42,451.443 L 478.135,441.884 L 448.19,433.976 L 432.722,430.681 L 416.928,427.714 L 401.462,426.065 L 385.996,425.736 L 373.49,427.714 L 362.632,431.009 L 352.101,437.271 L 352.101,490.002 L 359.341,486.047 L 368.226,483.411 L 375.136,481.763 L 386.654,480.774 L 398.169,481.105 L 413.637,482.091 L 428.114,484.398 L 445.226,487.364 L 462.338,491.322 L 490.637,499.559 L 518.281,508.787 L 571.919,529.552 L 628.847,555.587 L 670.637,576.35 L 670.637,593.486 L 593.308,555.256 L 543.618,534.496 L 491.955,515.709 L 465.3,507.469 L 438.645,501.868 L 411.991,498.241 L 385.007,496.924 L 372.832,499.23 L 362.303,502.856 L 357.037,507.141 L 354.076,513.073 L 356.377,521.641 L 360.985,531.527 L 367.566,540.755 L 372.832,550.972 L 372.832,499.23 L 385.007,496.924 Z" stroke="none" fill="#000080" stroke-width="0.329" marker-start="none" marker-end="none" stroke-miterlimit="79.8403193612775"/>
    <path d="M 670.637,593.157 L 670.637,295.226 L 686.105,302.805 L 686.105,601.397 L 670.637,593.157 Z" stroke="none" fill="#010180" stroke-width="0.329" marker-start="none" marker-end="none" stroke-miterlimit="79.8403193612775"/>
    <path d="M 705.19,311.375 L 719.998,319.943 L 719.998,617.875 L 705.19,610.296 L 705.19,311.375 Z" stroke="none" fill="#000080" stroke-width="0.329" marker-start="none" marker-end="none" stroke-miterlimit="79.8403193612775"/>
    <path d="M 52.649,131.1 L 66.142,131.429 L 78.975,136.042 L 91.151,141.317 L 104.641,143.292 L 118.463,148.236 L 130.638,156.475 L 141.17,166.695 L 148.739,179.218 L 152.356,190.092 L 154.003,200.641 L 154.003,211.844 L 153.345,222.721 L 145.118,266.552 L 152.687,273.145 L 159.268,280.725 L 164.863,288.964 L 169.797,297.863 L 173.419,307.091 L 176.052,316.977 L 178.024,327.194 L 179.011,337.74 L 178.353,347.299 L 176.709,356.856 L 173.745,365.753 L 170.128,374.652 L 165.191,381.902 L 159.268,388.164 L 152.356,393.437 L 144.46,397.392 L 131.296,398.712 L 118.794,396.075 L 113.857,425.736 L 128.008,456.056 L 135.246,476.49 L 143.474,502.856 L 146.764,518.675 L 148.079,529.221 L 148.079,540.426 L 147.093,551.963 L 144.789,563.167 L 140.51,576.679 L 135.246,589.202 L 128.337,600.408 L 123.729,604.694 L 118.463,607.33 L 111.224,606.341 L 103.984,602.385 L 98.392,597.113 L 94.112,592.169 L 87.86,585.578 L 81.608,577.668 L 75.685,569.1 L 70.09,559.871 L 65.156,550.643 L 60.877,543.064 L 57.258,534.825 L 53.638,524.608 L 49.359,505.492 L 47.384,486.047 L 46.397,466.933 L 47.384,455.727 L 49.03,444.521 L 52.649,422.441 L 33.893,394.097 L 23.033,375.97 L 15.137,361.14 L 9.871,349.605 L 5.592,337.411 L 2.302,325.216 L 0.658,312.364 L 0,299.181 L 0.658,288.635 L 2.962,278.089 L 7.899,264.246 L 15.137,252.052 L 24.351,241.835 L 29.614,237.551 L 35.869,234.255 L 42.121,231.618 L 50.348,229.311 L 60.877,229.311 L 71.079,230.96 L 80.951,233.927 L 89.507,237.551 L 92.139,231.289 L 93.783,225.027 L 85.556,221.732 L 78.975,216.788 L 65.814,206.242 L 55.94,200.309 L 51.005,197.343 L 46.069,194.377 L 41.792,189.432 L 38.501,184.488 L 35.537,179.218 L 32.578,173.614 L 30.603,164.717 L 30.932,155.487 L 33.236,147.25 L 37.184,140.328 L 44.425,134.395 L 52.649,131.1 Z" stroke="none" fill="#000080" stroke-width="0.329" marker-start="none" marker-end="none" stroke-miterlimit="79.8403193612775"/>
    <path d="M 85.907,151.202 L 79.652,153.509 L 73.402,156.807 L 68.794,163.068 L 65.833,170.319 L 64.846,178.558 L 65.173,187.455 L 68.794,196.354 L 73.402,204.593 L 79.983,211.184 L 85.575,214.15 L 89.195,215.47 L 93.803,215.47 L 97.751,213.822 L 101.372,211.184 L 104.663,207.231 L 106.638,200.969 L 107.296,194.377 L 106.638,187.455 L 104.663,180.536 L 101.041,175.263 L 97.093,171.307 L 91.827,168.012 L 86.235,166.035 L 89.195,163.068 L 91.827,161.419 L 94.792,160.431 L 98.411,159.773 L 105.978,161.419 L 112.888,164.717 L 118.485,169.001 L 124.077,174.603 L 130.986,183.502 L 134.937,193.719 L 136.583,204.593 L 136.583,216.128 L 135.266,228.322 L 132.633,240.188 L 129.342,252.38 L 126.381,263.588 L 116.838,259.962 L 105.978,256.338 L 94.46,254.358 L 81.956,254.689 L 72.414,257.324 L 63.858,261.28 L 53.657,268.53 L 45.101,278.089 L 38.849,288.964 L 33.912,301.818 L 30.622,315.328 L 30.293,327.854 L 31.937,340.377 L 33.912,352.241 L 37.534,363.446 L 42.469,375.97 L 47.734,387.835 L 54.644,400.03 L 64.515,417.497 L 88.539,455.727 L 85.249,473.523 L 82.616,487.036 L 81.299,500.55 L 80.97,512.413 L 81.956,528.561 L 84.26,544.382 L 87.551,557.894 L 91.827,570.088 L 97.093,581.952 L 103.674,591.84 L 108.94,597.113 L 113.219,598.761 L 116.181,598.43 L 119.8,596.124 L 123.419,591.18 L 127.696,581.623 L 131.975,571.077 L 135.266,559.871 L 137.241,547.348 L 137.57,535.482 L 136.91,523.619 L 135.266,512.413 L 128.685,490.331 L 120.786,467.262 L 112.888,448.477 L 104.005,427.383 L 112.561,384.54 L 119.142,387.504 L 127.696,389.153 L 136.91,388.824 L 145.139,385.858 L 152.706,381.245 L 160.276,371.686 L 165.539,359.822 L 168.172,346.639 L 168.83,340.048 L 168.83,333.127 L 167.186,323.239 L 165.211,314.011 L 162.249,305.442 L 158.301,297.534 L 153.035,288.635 L 148.098,283.362 L 141.846,276.769 L 134.937,270.839 L 135.266,264.906 L 136.91,254.689 L 138.556,246.121 L 140.86,237.551 L 142.833,228.982 L 143.822,220.083 L 144.479,210.855 L 144.479,202.287 L 142.833,193.719 L 140.531,185.808 L 136.583,178.229 L 131.646,171.636 L 126.709,166.363 L 121.775,162.408 L 116.509,158.453 L 111.244,155.487 L 105.32,153.18 L 99.397,151.862 L 94.46,151.202 L 85.907,151.202 Z M 96.107,261.611 L 106.307,263.917 L 115.852,267.541 L 124.408,272.157 L 108.611,351.912 L 99.397,343.672 L 92.487,333.787 L 88.208,322.25 L 87.222,309.727 L 88.539,303.465 L 91.17,297.863 L 94.792,293.577 L 100.055,290.613 L 105.978,287.646 L 105.649,285.34 L 100.055,284.351 L 95.118,285.34 L 90.512,287.317 L 86.564,290.284 L 80.641,295.886 L 76.693,303.465 L 74.389,311.704 L 73.402,320.603 L 74.718,329.832 L 76.693,338.4 L 79.326,346.639 L 82.616,354.549 L 86.564,361.8 L 91.499,368.719 L 96.764,374.983 L 103.016,380.914 L 96.436,415.848 L 87.222,403.325 L 78.008,390.471 L 69.452,376.63 L 61.556,362.457 L 55.302,346.968 L 51.025,330.82 L 48.721,317.637 L 48.392,305.771 L 49.707,294.897 L 52.671,286.326 L 57.934,277.758 L 64.515,270.839 L 72.414,265.895 L 85.907,261.611 L 96.107,261.611 Z M 134.762,278.089 L 139.698,282.702 L 143.975,288.304 L 147.597,293.908 L 150.556,300.17 L 152.862,306.76 L 154.178,313.682 L 155.164,320.603 L 155.164,328.183 L 153.52,335.433 L 151.216,342.024 L 147.597,347.956 L 142.66,353.232 L 137.066,355.867 L 131.471,357.516 L 125.548,357.516 L 119.625,357.185 L 134.762,278.089 Z M 96.764,465.284 L 102.03,473.855 L 107.953,483.08 L 113.219,493.3 L 118.153,503.843 L 122.104,515.051 L 125.063,526.586 L 127.038,538.449 L 127.038,548.006 L 125.063,556.905 L 121.775,561.189 L 115.852,561.52 L 109.597,557.565 L 103.348,548.666 L 98.74,539.109 L 95.118,529.881 L 92.487,518.017 L 91.17,506.809 L 91.17,497.912 L 92.159,489.013 L 96.764,465.284 Z" stroke-width="0.329" fill="#80ffff" stroke="none" marker-start="none" marker-end="none" stroke-miterlimit="79.8403193612775"/>
    <path d="M 235.939,613.591 L 240.219,614.251 L 246.142,592.5 L 253.38,578.328 L 262.925,565.473 L 275.427,550.315 L 286.947,526.254 L 291.224,501.868 L 289.249,476.49 L 282.339,449.794 L 279.706,449.137 L 284.314,473.195 L 286.287,495.275 L 283.325,516.369 L 273.125,537.462 L 266.873,544.053 L 260.292,549.326 L 253.052,552.29 L 246.142,553.61 L 258.317,426.394 L 256.342,411.236 L 250.09,398.381 L 240.547,390.142 L 229.69,384.869 L 223.435,385.198 L 217.843,388.164 L 213.564,393.437 L 211.92,401.679 L 212.906,415.848 L 219.158,428.701 L 228.372,437.6 L 238.901,443.201 L 246.799,442.875 L 252.723,439.909 L 241.863,554.927 L 235.939,613.591 Z" stroke="none" fill="#ff8000" stroke-width="0.329" marker-start="none" marker-end="none" stroke-miterlimit="79.8403193612775"/>
    <path d="M 605.483,496.592 L 609.431,496.924 L 614.039,474.841 L 619.962,460.011 L 628.847,446.828 L 640.034,431.009 L 650.565,405.963 L 653.198,381.574 L 649.579,356.525 L 640.691,330.489 L 638.39,329.832 L 644.313,353.232 L 647.604,375.312 L 646.288,396.075 L 637.401,417.826 L 631.48,424.748 L 624.899,430.681 L 618.316,434.633 L 611.406,435.951 L 615.026,308.409 L 612.393,293.248 L 605.154,281.053 L 595.281,273.474 L 584.423,269.19 L 577.842,269.519 L 572.576,272.814 L 568.955,278.089 L 567.968,290.284 L 570.272,301.818 L 577.184,315.328 L 586.067,322.91 L 595.941,327.194 L 604.497,326.205 L 611.078,322.25 L 607.456,437.6 L 605.483,496.592 Z" stroke="none" fill="#ff8080" stroke-width="0.329" marker-start="none" marker-end="none" stroke-miterlimit="79.8403193612775"/>
    <path d="M 310.638,576.679 L 314.259,577.01 L 318.207,374.983 L 316.561,360.151 L 310.638,347.628 L 300.109,338.4 L 286.947,334.773 L 280.693,335.764 L 275.758,339.057 L 272.139,344.99 L 270.492,353.561 L 273.125,368.39 L 280.035,381.245 L 289.906,389.484 L 300.438,392.448 L 308.007,392.119 L 313.928,387.835 L 310.638,576.679 Z" stroke="none" fill="#ff80ff" stroke-width="0.329" marker-start="none" marker-end="none" stroke-miterlimit="79.8403193612775"/>
    <path d="M 538.683,421.781 L 536.379,406.291 L 529.796,394.097 L 519.927,386.186 L 508.738,382.562 L 502.484,383.22 L 497.218,386.186 L 493.601,392.448 L 491.626,400.687 L 493.601,415.52 L 500.511,427.714 L 509.725,435.951 L 520.253,439.577 L 528.152,439.249 L 534.075,435.293 L 534.075,551.963 L 459.377,524.277 L 459.377,330.16 L 458.059,314.671 L 452.138,299.51 L 441.936,289.953 L 431.736,286.326 L 423.508,286.657 L 417.914,289.624 L 413.637,298.192 L 412.648,310.055 L 415.612,323.899 L 421.204,336.093 L 430.747,344.661 L 440.292,347.956 L 448.848,347.956 L 455.1,344.001 L 455.426,587.556 L 538.683,618.535 L 538.683,421.781 Z" stroke="none" fill="#80ff80" stroke-width="0.329" marker-start="none" marker-end="none" stroke-miterlimit="79.8403193612775"/>
   </g>
  </g>
 </g>
</svg>
